<?xml version="1.0" encoding="utf-8"?>
<!-- Generator: Adobe Illustrator 16.0.0, SVG Export Plug-In . SVG Version: 6.00 Build 0)  -->
<!DOCTYPE svg PUBLIC "-//W3C//DTD SVG 1.1//EN" "http://www.w3.org/Graphics/SVG/1.1/DTD/svg11.dtd">
<svg version="1.1" id="Layer_1" xmlns="http://www.w3.org/2000/svg" xmlns:xlink="http://www.w3.org/1999/xlink" x="0px" y="0px"
	 width="157.6px" height="108.4px" viewBox="0 0 157.6 108.4" enable-background="new 0 0 157.6 108.4" xml:space="preserve">
<path fill="#808080" d="M41.5,86.3l-3.1,2l-3.1,2l3-2.1l3-2.1l1.4-1v-4.4c-1-0.6-1.8-1.3-2.5-2.2c-0.7,1.8-2.4,3-4.4,3h-0.2
	c-1.4,0.9-2.9,1.9-4.8,3.2c0,0-1.9,1.1-4.9,1.1c-1.3,0-2.7,0-4,0.2c-1,0.1-2,0.3-3,0.6c-0.5,0.2-0.9,0.3-1.2,0.5
	c-0.4,0.2-0.7,0.4-1,0.6c-4.9,3.3-6.2,9.9-2.9,14.7c3.3,4.9,9.9,6.2,14.7,2.9c0.2-0.1,0.4-0.3,0.6-0.4c0,0,0,0,0,0
	c0.7-0.4,1.4-1.2,2-2.1c0,0,0,0,0,0c0,0,0,0,0-0.1c0.2-0.3,0.4-0.6,0.6-0.9c0.8-1.4,1.5-2.9,2.1-4.3c1.1-2.8,2.9-4.1,2.9-4.1
	c1.8-1.2,3.8-2.6,5.9-4v-4.1L41.5,86.3z M27.8,98.5c-0.4,0.8,0.9,1.3,0.2,2.3c-0.6,0.8-1.5-0.1-2.3,0.5c-0.9,0.6-0.5,1.7-1.3,2
	c-0.9,0.3-1.3-1-2.1-1c-0.7,0-1.3,1.2-2.2,0.9c-0.9-0.3-0.5-1.6-1.1-2c-0.6-0.5-1.7,0.3-2.3-0.6c-0.6-0.9,0.5-1.4,0.3-2.2
	c-0.2-0.8-1.5-0.9-1.5-2c0-1,1.3-0.9,1.6-1.7s-0.8-1.4-0.2-2.2c0.6-0.8,1.4,0,2.2-0.4c0.8-0.5,0.2-1.7,1.4-2c1.2-0.3,1.3,1,2.2,1
	c0.9,0,1.1-1.3,2.2-0.8c1.1,0.4,0.5,1.5,1.1,2.1c0.7,0.6,1.6-0.4,2.2,0.5c0.6,1-0.6,1.4-0.3,2.3c0.3,0.9,1.6,0.7,1.5,1.8
	C29.4,98,28.2,97.7,27.8,98.5"/>
<polygon fill="#808080" points="140,20.5 140,20.5 137.1,21.5 137.7,22.2 "/>
<path fill="#808080" d="M120.3,33.1l3.1-2l1.5-1l1.6-1c1-0.6,2.1-1.2,3.3-1.6c0.6-0.2,1.2-0.4,1.8-0.5c0.6-0.1,1.2-0.2,1.8,0
	c-0.6-0.1-1.2,0-1.8,0.1c-0.6,0.1-1.2,0.3-1.7,0.5c-1.1,0.5-2.2,1.1-3.2,1.7l-1.5,1l-1.5,1l-3,2.1l-1.1,0.7v0.2
	c0.7-0.5,1.6-0.7,2.5-0.7h4.2c2-1.3,3.5-2.2,4.2-2.7c4.3-2.6,8.4-2.1,12.7-2.4c4.3-0.3,7-1.4,10.1-6.1c3.1-4.7,3-11,2.5-11
	c-0.6,0.1-5,5.9-7,8.1c-2,2.2-4.3,0.7-5.9-0.3c-1.7-1-3.5-4.1-3.5-4.1c-0.6-1.4-1-3.1,0.6-4.9c1.6-1.8,6.5-7.4,6.9-7.7
	c0.3-0.4,0.4-0.9-1.7-0.9c-2.1,0-6.2,1.2-9.2,3.6c-2.9,2.4-4.2,4.6-6.1,8.6c-1.8,3.8-1.7,5.3-10.2,11.2v8.6
	C119.7,33.5,120,33.3,120.3,33.1 M140.1,19.5l1.2,1.6l-2.9,2.2l0.2,0.3l-0.8,0.6l-0.2-0.3l-0.9,0.7l-0.7-1l0.9-0.7l-1.2-1.6l1.1-0.8
	L140.1,19.5z M137.1,17.1L137.1,17.1l-1.6,0.1l0.1-1l2,0l1,1.3l-4.6,3.5l-0.8-1.1L137.1,17.1z M131.5,20.3c0.7,0.6,1.3,1.4,1.9,2.1
	c0.6,0.7,1,1.5,1.5,2.4c0.4,0.8,0.8,1.7,1.1,2.6c-0.6-0.7-1.1-1.5-1.7-2.2l-1.6-2.2c-0.5-0.7-1.1-1.4-1.6-2.1
	c-0.6-0.7-1.2-1.4-1.8-2C130,19.1,130.8,19.6,131.5,20.3"/>
<path fill="#808080" d="M40.6,38.2v-2.6L36.9,33l-3-2.1l-1.5-1l-1.5-1c-1-0.7-2.1-1.3-3.2-1.7c-0.6-0.2-1.1-0.4-1.7-0.6
	c-0.6-0.1-1.2-0.2-1.8-0.1c0.6-0.1,1.2-0.1,1.8,0c0.6,0.1,1.2,0.3,1.8,0.5c1.1,0.4,2.2,1,3.3,1.6l1.5,1l1.5,1l3.1,2
	c1.2,0.8,2.3,1.5,3.5,2.3v-8.6c-0.5-0.3-0.9-0.6-1.3-0.9c-9.9-6.7-9.6-8.2-11.5-12.2c-1.9-4-3.2-6.2-6.1-8.6c-2.9-2.4-7-3.6-9.2-3.6
	c-2.1,0-2.1,0.5-1.7,0.9c0.3,0.4,5.3,5.9,6.9,7.8c1.6,1.8,1.2,3.6,0.6,5c0,0-1.9,3.1-3.5,4.1c-1.7,1-4,2.4-5.9,0.2
	c-2-2.2-6.4-8-7-8.1C1.3,11,1.3,17.2,4.3,22c3.1,4.7,5.7,5.8,10.1,6.1c4.3,0.3,8.4-0.2,12.7,2.4c0.8,0.5,2.6,1.6,4.9,3.2h3.9
	C38.4,33.7,40.5,35.7,40.6,38.2 M19.3,16.4c0.7-0.9,1.2-1.2,2.2-0.4l2.4,1.9c0.9,0.7,0.8,1.2,0.1,2.1c-0.7,0.9-1.2,1.2-2.1,0.5
	l-2.4-1.9C18.5,17.9,18.6,17.3,19.3,16.4 M19.6,23.6c-0.6-0.5-0.8-1-0.6-2c0.1-0.5,0.1-0.6-0.3-0.9l-0.5-0.4
	c-0.4-0.3-0.5-0.3-0.6-0.1c-0.1,0.2-0.1,0.3,0,0.4l0.8,0.6l-0.7,1L17,21.5c-0.9-0.6-0.7-1.2-0.1-2c0.9-1.2,1.3-1,2.4-0.1
	c1,0.8,1.1,0.9,0.8,2c-0.1,0.7-0.1,0.9,0.3,1.2l0.1,0.1l1.1-1.5l0.8,0.6l-1.9,2.5L19.6,23.6z M21.5,26.8c0.3-0.9,0.6-1.8,1.1-2.6
	c0.4-0.8,0.9-1.6,1.5-2.3c0.6-0.7,1.2-1.5,1.9-2.1c0.7-0.6,1.5-1.2,2.4-1.5c-0.7,0.7-1.3,1.3-1.8,2c-0.6,0.7-1.1,1.4-1.6,2.1
	l-1.6,2.2C22.6,25.3,22.1,26.1,21.5,26.8"/>
<path fill="#808080" d="M119.5,80.8v7.4l2.4,1.7l-2.4-1.6v4.2c0.3,0.2,0.6,0.4,1,0.7c0,0,1.8,1.3,2.9,4.1c0.6,1.4,1.3,3,2.1,4.3
	c0.2,0.3,0.4,0.6,0.6,0.9c0,0,0,0,0,0.1c0,0,0,0,0,0c0.6,0.9,1.3,1.7,2,2.1c0,0,0,0,0,0c0.2,0.2,0.4,0.3,0.6,0.4
	c4.9,3.3,11.5,2,14.7-2.9c3.3-4.9,2-11.5-2.9-14.8c-0.3-0.2-0.7-0.4-1-0.6c-0.4-0.2-0.8-0.4-1.2-0.5c-1-0.4-2-0.6-3-0.6
	c-1.4-0.2-2.8-0.2-4-0.2c-3,0-4.9-1.1-4.9-1.1c-1.6-1.1-3-2-4.3-2.9H122C121.1,81.5,120.2,81.3,119.5,80.8 M129.3,94.7
	c0.3-0.9-0.9-1.4-0.3-2.3c0.6-1,1.5,0,2.2-0.5c0.7-0.6,0.1-1.7,1.1-2.1c1.1-0.4,1.3,0.8,2.2,0.8c0.9,0,1-1.3,2.2-1
	c1.2,0.3,0.6,1.6,1.4,2c0.8,0.5,1.6-0.4,2.2,0.4c0.6,0.8-0.5,1.4-0.2,2.2c0.3,0.8,1.6,0.7,1.6,1.7c0,1-1.3,1.1-1.5,2
	c-0.2,0.8,1,1.3,0.3,2.2c-0.6,0.9-1.7,0.2-2.3,0.6c-0.6,0.5-0.2,1.7-1.1,2c-0.9,0.3-1.4-0.9-2.2-0.9c-0.7,0-1.2,1.3-2.1,1
	c-0.9-0.3-0.5-1.4-1.3-2c-0.8-0.6-1.8,0.3-2.3-0.5c-0.8-1,0.5-1.5,0.2-2.3c-0.3-0.8-1.6-0.5-1.6-1.7C127.8,95.4,129,95.6,129.3,94.7
	"/>
<path fill="#808080" d="M22.9,19.5c0.2,0.1,0.3,0.1,0.4-0.1c0.1-0.2,0.1-0.3,0-0.4l-2.8-2.1c-0.1-0.1-0.2-0.1-0.4,0.1
	c-0.1,0.2-0.2,0.3,0,0.4L22.9,19.5z"/>
<path fill="#808080" d="M83.7,62.5c-0.4-0.3-0.7-0.6-1-0.9c-0.1,0.4-0.2,0.7-0.3,1C82.8,62.6,83.2,62.5,83.7,62.5"/>
<path fill="#808080" d="M68.6,49.1h-4.2v11.7c0,0.8-0.2,1.5-0.6,2.1h3.5c-0.4-0.6-0.6-1.4-0.6-2.1v-8.2
	C66.7,51.1,67.4,49.8,68.6,49.1"/>
<path fill="#808080" d="M149.2,36.7h-1.8c-0.2,0-0.5,0.1-0.8,0.2c-0.2-0.1-0.5-0.2-0.7-0.2h-1.5h0c-0.2,0-0.5,0.1-0.8,0.2
	c-0.2-0.1-0.5-0.2-0.7-0.2h-1.5c-0.2,0-0.5,0.1-0.8,0.2c-0.2-0.1-0.5-0.2-0.7-0.2h-17.4H122c-1,0-1.7,0.8-1.7,1.7v0.8
	c0,0.9,0.3,2.4,2.3,2.8c0,0.2,0,0.4,0,0.7v1.2c0,1.4,0.5,2.2,1.1,2.7V50c-1.7,0.1-4.5,0.3-7.5,0.5c0.1-0.9,0.1-1.8,0.2-2.8
	c0.1-2.2,0.1-4.9,0.1-8.1v-20c0-3.3-2.7-6-6-6H88.1c-3.3,0-6,2.7-6,6v8.7c0,3.3,2.7,6,6,6h5.5V39c-0.3,0-0.5,0-0.8,0h-9.5
	c-2.4,0-4.5,1.4-5.5,3.5v-5.9c0-1.5-0.6-2.9-1.5-4c1.1-1.1,1.7-2.6,1.7-4.2v-8.7c0-3.3-2.7-6-6-6H49.5c-3.3,0-6,2.7-6,6v30.7
	c-3.8-0.2-7.3-0.4-9.4-0.6v-3.2c0.6-0.4,1.1-1.2,1.1-2.7v-1.2c0-0.3,0-0.5,0-0.7c2-0.4,2.3-1.9,2.3-2.8v-0.8c0-1-0.8-1.7-1.7-1.7
	h-0.4H18c-0.3,0-0.5,0.1-0.7,0.2c-0.3-0.1-0.6-0.2-0.8-0.2H15c-0.3,0-0.5,0.1-0.7,0.2c-0.3-0.1-0.6-0.2-0.8-0.2H12
	c-0.3,0-0.5,0.1-0.7,0.2c-0.3-0.1-0.6-0.2-0.8-0.2H8.7c-3.2,0-4.2,5.1-4.2,20.9c0,15.8,1,20.9,4.2,20.9h1.8c0.2,0,0.5,0,0.8-0.2
	c0.2,0.1,0.5,0.2,0.7,0.2h1.5c0.2,0,0.5,0,0.8-0.2c0.2,0.1,0.5,0.2,0.7,0.2h1.5c0.2,0,0.5,0,0.8-0.2c0.2,0.1,0.5,0.2,0.7,0.2h17.4
	h0.4c1,0,1.7-0.8,1.7-1.7V76c0-0.9-0.3-2.4-2.3-2.8c0-0.2,0-0.4,0-0.7v-1.2c0-1.4-0.5-2.2-1.1-2.7v-3.5c1.7-0.1,4.6-0.3,7.7-0.5
	c-0.3,0.7-0.5,1.5-0.5,2.4V73c0,2.8,1.9,5.1,4.4,5.8v16.3c0,3.3,2.7,6,6,6h5.8c1.1,0,2.1-0.3,3.1-0.8c0.9,0.5,2,0.8,3.1,0.8H76
	c0.9,0,1.9-0.2,2.7-0.6c0.3,0.1,0.5,0.2,0.8,0.3c1.6,0.6,3.6,0.8,6.2,0.8c2.3,0,4.2-0.3,5.8-0.9c0.2-0.1,0.5-0.2,0.7-0.3
	c0.9,0.5,1.8,0.7,2.8,0.7h6c0.6,0,1.2-0.1,1.8-0.3c0.6,0.2,1.2,0.3,1.8,0.3h6c3.3,0,6-2.7,6-6v-28c0-0.7-0.1-1.4-0.4-2.1
	c3.1,0.2,5.8,0.3,7.6,0.5v3.2c-0.6,0.4-1.1,1.2-1.1,2.7v1.2c0,0.3,0,0.6,0,0.7c-2,0.4-2.3,1.9-2.3,2.8v0.8c0,1,0.8,1.7,1.7,1.7h0.4
	h17.4c0.3,0,0.5-0.1,0.7-0.2c0.3,0.1,0.6,0.2,0.8,0.2h0h1.5c0.3,0,0.5-0.1,0.7-0.2c0.3,0.1,0.6,0.2,0.8,0.2h0h1.5
	c0.3,0,0.5-0.1,0.7-0.2c0.3,0.1,0.6,0.2,0.8,0.2h1.8c3.2,0,4.2-5.1,4.2-20.9C153.4,41.7,152.4,36.7,149.2,36.7 M10.5,76.8H8.7
	c-1.6,0-2.5-5.9-2.5-19.2c0-13.3,0.9-19.2,2.5-19.2h1.8c0.4,0,0.4,0.5,0.4,0.8h-0.6h0c-0.3,2-1,7.4-1.1,16.2v0.1v0.4V56
	c0,0.1,0,0.2,0,0.3v0.2v0.4v0.2v0.5v0.5v0.2v0.4v0.2c0,0.1,0,0.2,0,0.3v0.2v0.4v0.1c0.1,8.7,0.8,14.2,1.1,16.1h0.6
	C10.9,76.3,10.8,76.8,10.5,76.8 M13.5,76.8L13.5,76.8C13.5,76.8,13.5,76.8,13.5,76.8H12c-0.2-0.8-0.8-4.6-1.1-11.6c0,0,0,0,0-0.1
	c0-0.5,0-0.9-0.1-1.4c0-0.1,0-0.2,0-0.3c0-0.4,0-0.9,0-1.3c0-0.1,0-0.3,0-0.4c0-0.6,0-1.2,0-1.8c0,0,0-0.1,0-0.1v-0.4v-0.2
	c0-0.1,0-0.2,0-0.3v-0.2v-0.4v-0.2v-0.5v-0.5v-0.2v-0.4v-0.2c0-0.1,0-0.2,0-0.3v-0.2v-0.4c0,0,0-0.1,0-0.1c0-0.6,0-1.2,0-1.8
	c0-0.1,0-0.3,0-0.4c0-0.5,0-0.9,0-1.3c0-0.1,0-0.2,0-0.4c0-0.5,0-1,0.1-1.4c0,0,0,0,0-0.1c0.3-7,0.9-10.8,1.1-11.6h1.5c0,0,0,0,0,0
	l0,0c0.4,0,0.4,0.5,0.4,0.8h-0.6h0c-0.3,2-1,7.4-1.1,16.2v0.1c0,0.1,0,0.2,0,0.4V56v0.3v0.2c0,0.1,0,0.2,0,0.3v0.2v0.5v0.5v0.2
	c0,0.1,0,0.2,0,0.3v0.2v0.3v0.2c0,0.1,0,0.2,0,0.4v0.1c0.1,8.7,0.8,14.2,1.1,16.1h0h0.6C13.9,76.3,13.9,76.8,13.5,76.8 M16.5,76.8
	L16.5,76.8H15c-0.2-0.8-0.8-4.6-1.1-11.6v-0.1c0-0.5,0-0.9-0.1-1.4c0-0.1,0-0.2,0-0.4c0-0.4,0-0.9,0-1.3c0-0.1,0-0.3,0-0.4
	c0-0.6,0-1.2,0-1.8v-0.1c0-0.1,0-0.2,0-0.4v-0.2v-0.3v-0.2v-0.3c0-0.1,0-0.1,0-0.2v-0.5v-0.5c0-0.1,0-0.1,0-0.2v-0.3v-0.2V56v-0.2
	c0-0.1,0-0.2,0-0.4v-0.1c0-0.6,0-1.2,0-1.8c0-0.2,0-0.3,0-0.4c0-0.4,0-0.9,0-1.3c0-0.1,0-0.2,0-0.4c0-0.5,0-1,0.1-1.4V50
	c0.3-7,0.9-10.8,1.1-11.6h1.5c0.4,0,0.4,0.5,0.4,0.8h-0.6h0c0,0.2-0.1,0.5-0.1,0.8c0,0,0,0.1,0,0.1c0,0.1,0,0.3-0.1,0.4
	c0,0.1,0,0.1,0,0.2c0,0.1,0,0.3-0.1,0.4c0,0.1,0,0.2,0,0.3c0,0.1,0,0.3,0,0.4c0,0.1,0,0.2,0,0.3c0,0.1,0,0.3,0,0.5
	c0,0.1,0,0.3,0,0.4c0,0.2,0,0.3-0.1,0.5c0,0.1,0,0.3,0,0.4c0,0.2,0,0.4-0.1,0.6c0,0.2,0,0.3,0,0.5c0,0.2,0,0.4,0,0.6
	c0,0.2,0,0.3,0,0.5c0,0.2,0,0.4,0,0.7c0,0.2,0,0.4,0,0.5c0,0.2,0,0.5,0,0.7c0,0.2,0,0.4,0,0.5c0,0.3,0,0.5,0,0.8c0,0.2,0,0.4,0,0.5
	c0,0.6,0,1.2-0.1,1.8c0,0.2,0,0.4,0,0.5c0,0.3,0,0.6,0,0.8c0,0.3,0,0.5,0,0.7c0,0.3,0,0.6,0,0.9c0,0.2,0,0.4,0,0.7c0,0,0,0.1,0,0.1
	v0.1c0,0.1,0,0.1,0,0.2v0V56v0.3c0,0.1,0,0.1,0,0.2v0.4v0.2v0.4v0.1v0.1v0.4v0.2v0.4c0,0.1,0,0.1,0,0.2v0.3v0.2v0c0,0.1,0,0.1,0,0.2
	v0.1c0,0,0,0.1,0,0.1c0,0.2,0,0.4,0,0.7c0,0.3,0,0.6,0,0.9c0,0.3,0,0.5,0,0.7c0,0.3,0,0.6,0,0.8c0,0.2,0,0.4,0,0.5
	c0,0.6,0,1.2,0.1,1.8c0,0.2,0,0.4,0,0.5c0,0.3,0,0.5,0,0.8c0,0.2,0,0.4,0,0.5c0,0.2,0,0.5,0,0.7c0,0.2,0,0.4,0,0.5
	c0,0.2,0,0.4,0,0.7c0,0.2,0,0.3,0,0.5c0,0.2,0,0.4,0,0.6c0,0.2,0,0.3,0,0.5c0,0.2,0,0.4,0.1,0.6c0,0.1,0,0.3,0,0.4
	c0,0.2,0,0.4,0.1,0.5c0,0.1,0,0.3,0,0.4c0,0.2,0,0.3,0,0.5c0,0.1,0,0.2,0,0.3c0,0.2,0,0.3,0,0.4c0,0.1,0,0.2,0,0.3
	c0,0.1,0,0.3,0.1,0.4c0,0.1,0,0.2,0,0.2c0,0.1,0,0.3,0.1,0.4c0,0,0,0.1,0,0.1c0,0.3,0.1,0.6,0.1,0.8h0h0.6
	C16.9,76.3,16.9,76.8,16.5,76.8 M34.8,74.9c0.7,0.1,1,0.3,1,1.1v0.8h-0.4H18c-0.2-0.8-0.8-4.6-1.1-11.6c0,0,0,0,0-0.1
	c0-0.5,0-0.9-0.1-1.4c0-0.1,0-0.2,0-0.3c0-0.4,0-0.9,0-1.3c0-0.1,0-0.3,0-0.4c0-0.6,0-1.2,0-1.8v-0.1c0-0.1,0-0.2,0-0.4v-0.2
	c0-0.1,0-0.2,0-0.3v-0.2c0-0.1,0-0.2,0-0.4v-0.2v-0.5v-0.5v-0.2c0-0.1,0-0.2,0-0.4v-0.2c0-0.1,0-0.2,0-0.3v-0.2c0-0.1,0-0.2,0-0.4
	v-0.1c0-0.6,0-1.2,0-1.8c0-0.1,0-0.3,0-0.4c0-0.5,0-0.9,0-1.3c0-0.1,0-0.2,0-0.4c0-0.5,0-1,0.1-1.4c0,0,0,0,0-0.1
	c0.3-7,0.9-10.8,1.1-11.6h17.4h0.4v0.8c0,0.8-0.3,1-1,1.1c-0.7,0.1-1.3,0-1.3,2.4v1.2c0,0.9-0.2,1.4-1.1,1.4h0H20.3
	c-1.2,0-1.9,1.5-1.9,2.9V67c0,1.4,0.7,2.9,1.9,2.9h12.1h0c0.9,0,1.1,0.5,1.1,1.4v1.2C33.5,74.9,34.2,74.9,34.8,74.9 M30.9,57.6
	c0,3-2.4,5.3-5.4,5.3s-5.4-2.4-5.4-5.3c0-2.9,2.4-5.3,5.4-5.3S30.9,54.6,30.9,57.6 M114.7,67.1v28c0,2.3-1.9,4.2-4.2,4.2h-6
	c-0.6,0-1.3-0.1-1.8-0.4c-0.5,0.3-1.2,0.4-1.8,0.4h-6c-1,0-1.9-0.4-2.7-1c-0.5,0.3-0.9,0.5-1.5,0.7c-1.4,0.5-3.1,0.8-5.2,0.8
	c-2.3,0-4.2-0.2-5.6-0.7c-0.5-0.2-1-0.4-1.5-0.7c-0.7,0.6-1.6,0.9-2.6,0.9H63.7c-1.2,0-2.3-0.5-3.1-1.3c-0.8,0.8-1.9,1.3-3.1,1.3
	h-5.8c-2.3,0-4.2-1.9-4.2-4.2V77.2h-0.2c-2.3,0-4.2-1.9-4.2-4.2v-5.9c0-0.9,0.3-1.8,0.8-2.5c0.5-0.7,1.3-1.2,2.1-1.5
	c-0.1-0.1-0.1-0.2-0.2-0.4c-0.3-0.6-0.5-1.3-0.5-2v-0.3C40.6,60.7,35.2,61,35.2,61C34.6,61,34,60.6,34,60v-5c0-0.6,0.5-1.1,1.2-1
	c0,0,5.4,0.2,10.1,0.4v-2.3v-1.7V19.6c0-2.3,1.9-4.2,4.2-4.2H72c2.3,0,4.2,1.9,4.2,4.2v8.7c0,2.1-1.5,3.8-3.5,4.1
	c1.9,0.4,3.3,2.1,3.3,4.1v8.4c0,1.5-0.7,2.7-1.9,3.5h4.5c0.1,0,0.2,0,0.3,0c0-1.2,0.1-2.5,0.2-3.8c0.2-2.1,2-3.8,4.2-3.8h9.5
	c1,0,1.9,0.3,2.6,0.9c0-0.6,0-1.3,0-2v-7.3h-7.3c-2.3,0-4.2-1.9-4.2-4.2v-8.7c0-2.3,1.9-4.2,4.2-4.2h22.4c2.3,0,4.2,1.9,4.2,4.2v20
	c0,3.2-0.1,5.9-0.1,8c0,1.1-0.1,2.1-0.2,3c0,0.6-0.1,1.2-0.2,1.8c0,0.3-0.1,0.7-0.1,1c-0.1,0.5-0.1,0.9-0.2,1.3
	c4.3-0.2,8.8-0.4,8.8-0.4c0.6-0.1,1.2,0.4,1.2,1v5c0,0.6-0.5,1.1-1.2,1c0,0-6.4-0.2-11.3-0.5c-0.5,0.7-1.2,1.3-1.9,1.9
	c-0.1,0.1-0.2,0.2-0.4,0.3h1h0.4c0.2,0,0.4,0,0.7,0.1c1.2,0.2,2.3,0.9,2.9,1.9C114.5,65.5,114.7,66.3,114.7,67.1 M139.8,76.8h-17.4
	H122V76c0-0.8,0.3-1,1-1.1c0.7-0.1,1.3,0,1.3-2.4v-1.2c0-0.9,0.2-1.4,1.1-1.4h0h12.1c1.2,0,1.9-1.5,1.9-2.9V48.2
	c0-1.4-0.7-2.9-1.9-2.9h-12.1h0c-0.9,0-1.1-0.5-1.1-1.4v-1.2c0-2.4-0.7-2.3-1.3-2.4s-1-0.3-1-1.1v-0.8h0.4h17.4
	c0.2,0.8,0.8,4.6,1.1,11.6v0.1c0,0.5,0,0.9,0.1,1.4c0,0.1,0,0.2,0,0.4c0,0.4,0,0.9,0,1.3c0,0.1,0,0.3,0,0.4c0,0.6,0,1.2,0,1.8v0.1
	v0.4c0,0.1,0,0.1,0,0.2v0.3v0.2v0.4v0.2v0.5v0.5v0.2v0.4v0.2v0.3c0,0.1,0,0.1,0,0.2v0.4v0.1c0,0.6,0,1.2,0,1.8c0,0.1,0,0.3,0,0.4
	c0,0.4,0,0.9,0,1.3c0,0.1,0,0.2,0,0.4c0,0.5,0,1-0.1,1.4v0.1C140.7,72.2,140,76,139.8,76.8 M127,57.6c0-2.9,2.4-5.3,5.4-5.3
	c3,0,5.4,2.4,5.4,5.3s-2.4,5.3-5.4,5.3C129.4,62.9,127,60.6,127,57.6 M142.8,76.8h-1.5c-0.4,0-0.4-0.5-0.4-0.8h0.6h0
	c0-0.2,0.1-0.5,0.1-0.8c0-0.1,0-0.1,0-0.2c0-0.1,0-0.2,0-0.4c0-0.1,0-0.2,0-0.2c0-0.1,0-0.3,0.1-0.4c0-0.1,0-0.2,0-0.3
	c0-0.1,0-0.3,0-0.4c0-0.1,0-0.2,0-0.3c0-0.2,0-0.3,0-0.5c0-0.1,0-0.3,0-0.4c0-0.2,0-0.3,0.1-0.5c0-0.1,0-0.3,0-0.4
	c0-0.2,0-0.4,0.1-0.6c0-0.2,0-0.3,0-0.5c0-0.2,0-0.4,0-0.6c0-0.2,0-0.3,0-0.5c0-0.2,0-0.4,0-0.7c0-0.2,0-0.4,0-0.5
	c0-0.2,0-0.5,0-0.7c0-0.2,0-0.4,0-0.5c0-0.3,0-0.5,0-0.8c0-0.2,0-0.4,0-0.5c0-0.6,0-1.2,0.1-1.8c0-0.2,0-0.4,0-0.5
	c0-0.3,0-0.6,0-0.8c0-0.2,0-0.5,0-0.7c0-0.3,0-0.6,0-0.9c0-0.2,0-0.4,0-0.7v-0.1v-0.1v-0.2c0,0,0,0,0,0v-0.2v-0.3v-0.2v-0.4v-0.2
	c0-0.1,0-0.3,0-0.4v-0.1v-0.1c0-0.1,0-0.3,0-0.4v-0.2v-0.4v-0.2V56v-0.2c0,0,0,0,0,0v-0.2v-0.1v-0.1c0-0.2,0-0.4,0-0.7
	c0-0.3,0-0.6,0-0.9c0-0.3,0-0.5,0-0.7c0-0.3,0-0.6,0-0.8c0-0.2,0-0.4,0-0.5c0-0.6,0-1.2-0.1-1.8c0-0.2,0-0.4,0-0.5
	c0-0.3,0-0.5,0-0.8c0-0.2,0-0.4,0-0.5c0-0.2,0-0.5,0-0.7c0-0.2,0-0.4,0-0.5c0-0.2,0-0.4,0-0.7c0-0.2,0-0.3,0-0.5c0-0.2,0-0.4,0-0.6
	c0-0.2,0-0.3,0-0.5c0-0.2,0-0.4-0.1-0.6c0-0.1,0-0.3,0-0.4c0-0.2,0-0.4-0.1-0.5c0-0.1,0-0.3,0-0.4c0-0.2,0-0.3,0-0.5
	c0-0.1,0-0.2,0-0.3c0-0.1,0-0.3,0-0.4c0-0.1,0-0.2,0-0.3c0-0.1,0-0.3-0.1-0.4c0-0.1,0-0.2,0-0.2c0-0.1,0-0.3,0-0.4
	c0-0.1,0-0.1,0-0.2c0-0.3-0.1-0.6-0.1-0.8h0h-0.6c0-0.4,0.1-0.8,0.4-0.8h1.5c0.2,0.8,0.8,4.6,1.1,11.6c0,0,0,0,0,0.1
	c0,0.5,0,0.9,0.1,1.4c0,0.1,0,0.2,0,0.3c0,0.4,0,0.9,0,1.3c0,0.1,0,0.3,0,0.4c0,0.6,0,1.2,0,1.8v0.1c0,0.1,0,0.2,0,0.4V56
	c0,0.1,0,0.2,0,0.3v0.2c0,0.1,0,0.2,0,0.3v0.2v0.5v0.5v0.2c0,0.1,0,0.2,0,0.3v0.2c0,0.1,0,0.2,0,0.3v0.2c0,0.1,0,0.2,0,0.4v0.1
	c0,0.6,0,1.2,0,1.8c0,0.1,0,0.3,0,0.4c0,0.5,0,0.9,0,1.3c0,0.1,0,0.2,0,0.3c0,0.5,0,1-0.1,1.4c0,0,0,0.1,0,0.1
	C143.6,72.2,143,76,142.8,76.8 M144.4,76.8C144.4,76.8,144.4,76.8,144.4,76.8L144.4,76.8c-0.4,0-0.4-0.5-0.4-0.8h0.6h0h0
	c0.3-2,1-7.4,1.1-16.1v-0.1c0-0.1,0-0.2,0-0.4c0-0.1,0-0.1,0-0.2v-0.3c0-0.1,0-0.1,0-0.2v-0.3v-0.2c0-0.2,0-0.3,0-0.5
	c0-0.2,0-0.3,0-0.5v-0.2v-0.3c0-0.1,0-0.1,0-0.2V56c0-0.1,0-0.1,0-0.2c0-0.1,0-0.2,0-0.4v-0.1c-0.1-8.7-0.8-14.2-1.1-16.2h0h0h-0.6
	c0-0.4,0.1-0.8,0.4-0.8l0,0c0,0,0,0,0,0h1.5c0.2,0.8,0.8,4.6,1.1,11.6c0,0,0,0.1,0,0.1c0,0.5,0,0.9,0.1,1.4c0,0.1,0,0.2,0,0.4
	c0,0.4,0,0.9,0,1.3c0,0.1,0,0.3,0,0.4c0,0.6,0,1.2,0,1.8v0.1c0,0.1,0,0.2,0,0.4V56c0,0.1,0,0.2,0,0.3v0.2c0,0.1,0,0.2,0,0.4v0.2v0.5
	v0.5v0.2c0,0.1,0,0.2,0,0.4v0.2c0,0.1,0,0.2,0,0.3v0.2c0,0.1,0,0.2,0,0.4v0.1c0,0.6,0,1.2,0,1.8c0,0.1,0,0.3,0,0.4
	c0,0.4,0,0.9,0,1.3c0,0.1,0,0.2,0,0.4c0,0.5,0,1-0.1,1.4c0,0,0,0.1,0,0.1c-0.3,7-0.9,10.8-1.1,11.6H144.4z M149.2,76.8h-1.8
	c-0.4,0-0.4-0.5-0.4-0.8h0.6h0c0.3-2,1-7.4,1.1-16.1v-0.1c0-0.1,0-0.2,0-0.4c0-0.1,0-0.1,0-0.2v-0.3c0-0.1,0-0.1,0-0.2v-0.4v-0.2
	v-0.5v-0.5v-0.2v-0.4c0-0.1,0-0.1,0-0.2V56c0-0.1,0-0.1,0-0.2c0-0.1,0-0.2,0-0.4v-0.1c-0.1-8.7-0.8-14.2-1.1-16.2h0H147
	c0-0.4,0.1-0.8,0.4-0.8h1.8c1.6,0,2.5,5.9,2.5,19.2C151.7,70.9,150.7,76.8,149.2,76.8"/>
<path fill="#FFFFFF" d="M135.4,57.6c0-1.7-1.4-3.1-3.1-3.1c-1.7,0-3.1,1.4-3.1,3.1c0,1.7,1.4,3.1,3.1,3.1
	C134.1,60.7,135.4,59.3,135.4,57.6"/>
<path fill="#FFFFFF" d="M22.4,57.6c0,1.7,1.4,3.1,3.1,3.1s3.1-1.4,3.1-3.1c0-1.7-1.4-3.1-3.1-3.1S22.4,55.9,22.4,57.6"/>
<path fill="#FFFFFF" d="M68.8,52.6v8.2c0,1.2,0.9,2.1,2.1,2.1h7.7c1.2,0,2.1-0.9,2.1-2.1v-8.2c0-1.2-0.9-2.1-2.1-2.1h-7.7
	C69.7,50.5,68.8,51.4,68.8,52.6"/>
<path fill="none" d="M75.9,75.8c0-0.1,0-0.2,0-0.4c0-0.1,0-0.3,0-0.4h-4.4v0.7H75.9z"/>
<path fill="none" d="M71.6,85.7v1.1h4.4c0-0.2,0-0.3,0-0.5c0-0.2,0-0.4,0-0.6H71.6z"/>
<path fill="#FFFFFF" d="M110.5,65h-6c-0.8,0-1.4,0.4-1.8,1c-0.4-0.6-1-1-1.8-1h-6c-1.1,0-2,0.8-2.1,1.9c-0.8-0.9-1.8-1.5-3-1.9
	c-1.2-0.4-2.6-0.5-4.4-0.5c-2,0-3.6,0.2-4.7,0.6c-1.1,0.4-1.9,1-2.6,1.8C78,65.8,77.1,65,76,65H63.7c-0.3,0-0.6,0.1-0.9,0.2
	c-0.3-0.1-0.6-0.2-0.9-0.2H47.3c-1.2,0-2.1,0.9-2.1,2.1V73c0,1.2,0.9,2.1,2.1,2.1h2.3v20c0,1.2,0.9,2.1,2.1,2.1h5.8
	c1.2,0,2.1-0.9,2.1-2.1v-20h1.9v20c0,1.2,0.9,2.1,2.1,2.1H76c1.1,0,2-0.9,2.1-2c0.7,0.8,1.6,1.5,2.7,1.8c1.2,0.4,2.8,0.6,4.9,0.6
	c1.8,0,3.3-0.2,4.5-0.6c1.1-0.4,2-1,2.8-1.8c0.1,1.1,1,2,2.1,2h6c0.8,0,1.4-0.4,1.8-1c0.4,0.6,1,1,1.8,1h6c1.2,0,2.1-0.9,2.1-2.1
	v-28C112.6,66,111.7,65,110.5,65z M75.9,75.1c0,0.1,0,0.3,0,0.4c0,0.1,0,0.2,0,0.4h-4.3v-0.7H75.9z M75.9,86.8h-4.4v-1.1h4.3
	c0,0.2,0,0.4,0,0.6C75.9,86.5,75.9,86.6,75.9,86.8z"/>
<path fill="#FFFFFF" d="M72,30.4c1.2,0,2.1-0.9,2.1-2.1v-8.7c0-1.2-0.9-2.1-2.1-2.1H49.5c-1.2,0-2.1,0.9-2.1,2.1v41.2
	c0,1.2,0.9,2.1,2.1,2.1h10.7c1.2,0,2.1-0.9,2.1-2.1V47h9.5c1.2,0,2.1-0.9,2.1-2.1v-8.4c0-1.2-0.9-2.1-2.1-2.1h-9.5v-4H72z"/>
<path fill="#FFFFFF" d="M110.5,17.5H88.1c-1.2,0-2.1,0.9-2.1,2.1v8.7c0,1.2,0.9,2.1,2.1,2.1h9.4v9.4c0,2.2,0,4.1,0,5.4
	c0,1.3-0.1,2.4-0.1,3.1c-0.1,0.9-0.1,1.3-0.2,1.5c0,0.1-0.1,0.2-0.1,0.3c-0.2,0-0.6,0-1.2,0c-0.3,0-0.5,0-0.6,0
	c0-0.1-0.1-0.3-0.1-0.4c-0.1-0.3-0.1-0.7-0.2-1.1c0-0.4-0.1-1-0.1-1.6c0-0.6,0-1.3,0-2.1c0-1.2-0.9-2.1-2.1-2.1h-9.5
	c-1.1,0-2,0.8-2.1,1.9C81,46.2,81,47.5,81,48.7c0,2.3,0.2,4.3,0.5,6.1c0.4,2,1.2,3.7,2.4,5c1.2,1.3,2.9,2.3,5,2.9
	c2,0.6,4.4,0.8,7.5,0.8c1.7,0,3.3-0.1,4.6-0.2c1.4-0.1,2.7-0.3,3.7-0.6c1.1-0.3,2.1-0.8,2.9-1.3c0.8-0.6,1.5-1.2,2.1-2
	c0.6-0.8,1.1-1.7,1.4-2.7c0.3-1,0.6-2.2,0.8-3.7c0.2-1.5,0.4-3.3,0.5-5.5c0.1-2.1,0.1-4.8,0.1-7.9v-20
	C112.6,18.4,111.7,17.5,110.5,17.5z"/>
<polygon fill="#8BC53F" points="60.2,44.9 71.8,44.9 71.8,36.5 60.2,36.5 60.2,28.3 72,28.3 72,19.6 49.5,19.6 49.5,60.8 60.2,60.8 
	"/>
<path fill="#8BC53F" d="M99.6,19.6H88.1v8.7h11.5v11.5c0,2.3,0,4.1,0,5.5c0,1.4-0.1,2.4-0.1,3.2c0,0.8-0.1,1.4-0.2,1.8
	c-0.1,0.4-0.2,0.7-0.3,1c-0.2,0.4-0.5,0.6-0.9,0.8c-0.4,0.1-1.1,0.2-2.2,0.2c-1.3,0-2.1-0.3-2.4-0.9c-0.1-0.4-0.3-0.7-0.3-1.1
	c-0.1-0.4-0.2-0.8-0.2-1.3c0-0.5-0.1-1.1-0.1-1.7c0-0.6,0-1.4,0-2.2h-9.5c-0.1,1.3-0.2,2.5-0.2,3.7c0,2.2,0.1,4.1,0.4,5.7
	c0.3,1.6,0.9,2.9,1.9,4c1,1.1,2.3,1.8,4,2.3c1.7,0.5,4,0.8,6.9,0.8c1.7,0,3.2-0.1,4.5-0.2c1.3-0.1,2.4-0.3,3.3-0.6
	c0.9-0.3,1.7-0.6,2.3-1.1c0.6-0.4,1.2-1,1.6-1.6c0.5-0.6,0.8-1.3,1.1-2.1c0.3-0.8,0.5-1.9,0.7-3.3c0.2-1.4,0.4-3.1,0.4-5.2
	c0.1-2.1,0.1-4.7,0.1-7.8V28.3v-8.6v-0.1H99.9H99.6z"/>
<rect x="70.9" y="52.6" fill="#8BC53F" width="7.7" height="8.2"/>
<polygon fill="#8BC53F" points="47.3,73 51.7,73 51.7,95.1 57.5,95.1 57.5,73 61.9,73 61.9,67.1 47.3,67.1 "/>
<polygon fill="#8BC53F" points="63.7,95.1 76,95.1 76,88.9 69.5,88.9 69.5,83.6 75.9,83.6 75.9,77.9 69.5,77.9 69.5,73 76,73 
	76,67.1 63.7,67.1 "/>
<path fill="#8BC53F" d="M87.4,84.4c0,0.6,0,1.1,0,1.5c0,0.4,0,0.8-0.1,1.1c0,0.3-0.1,0.6-0.1,0.9c0,0.3-0.1,0.5-0.2,0.8
	c-0.2,0.4-0.6,0.6-1.3,0.6c-0.6,0-1,0-1.2-0.1c-0.2-0.1-0.4-0.3-0.4-0.5c-0.1-0.2-0.1-0.4-0.2-0.7c0-0.3-0.1-0.7-0.1-1.2
	c0-0.5-0.1-1.3-0.1-2.2c0-0.9,0-2.2,0-3.7c0-1.5,0-2.7,0-3.7c0-0.9,0-1.7,0.1-2.2c0-0.5,0.1-0.9,0.1-1.2c0-0.3,0.1-0.5,0.2-0.7
	c0.1-0.2,0.2-0.4,0.4-0.5c0.2-0.1,0.5-0.2,1-0.2c0.9,0,1.5,0.2,1.6,0.7c0,0.1,0,0.3,0.1,0.5c0,0.2,0.1,0.4,0.1,0.8
	c0,0.3,0,0.7,0.1,1.2c0,0.5,0,1.1,0,1.9h5.4c0-0.5,0-0.9,0.1-1.3c0-0.4,0-0.8,0-1.1c0-1.5-0.1-2.7-0.3-3.8c-0.2-1-0.5-1.9-1-2.6
	c-0.5-0.7-1.3-1.1-2.2-1.4c-1-0.3-2.2-0.5-3.8-0.5c-1.8,0-3.1,0.2-4.1,0.5c-0.9,0.3-1.7,0.9-2.1,1.7c-0.3,0.4-0.5,0.9-0.6,1.4
	c-0.2,0.5-0.3,1.2-0.4,2c-0.1,0.9-0.2,2-0.2,3.3c0,1.4-0.1,3.1-0.1,5.3c0,2.2,0,4,0.1,5.4c0,1.4,0.1,2.6,0.2,3.5
	c0.1,0.9,0.3,1.6,0.4,2.2c0.2,0.5,0.4,1,0.6,1.4c0.5,0.9,1.2,1.5,2.2,1.8c1,0.3,2.4,0.5,4.2,0.5c1.6,0,2.8-0.2,3.8-0.5
	c0.9-0.3,1.7-0.9,2.2-1.6c0.5-0.7,0.9-1.6,1-2.7c0.2-1.1,0.2-2.4,0.2-3.9c0-0.8,0-1.6-0.1-2.5H87.4z"/>
<polygon fill="#8BC53F" points="104.6,77.9 101,77.9 101,67.1 95,67.1 95,95.1 101,95.1 101,83.6 104.6,83.6 104.6,95.1 110.5,95.1 
	110.5,67.1 104.6,67.1 "/>
<path fill="#8BC53F" d="M87.3,79.4c-0.6,0-1.1-0.3-1.5-0.7c0,0.6,0,1.3,0,2c0,0.9,0,1.6,0,2.3c0.4-0.5,1-0.8,1.6-0.8h5.4
	c0,0,0.1,0,0.1,0v-2.9c-0.1,0-0.1,0-0.2,0H87.3z"/>
<g>
</g>
<g>
</g>
<g>
</g>
<g>
</g>
<g>
</g>
<g>
</g>
<g>
</g>
<g>
</g>
<g>
</g>
<g>
</g>
<g>
</g>
<g>
</g>
<g>
</g>
<g>
</g>
<g>
</g>
</svg>
